<?xml version="1.0" standalone="no"?>
<!DOCTYPE svg PUBLIC "-//W3C//DTD SVG 20010904//EN"
 "http://www.w3.org/TR/2001/REC-SVG-20010904/DTD/svg10.dtd">
<svg version="1.0" xmlns="http://www.w3.org/2000/svg"
 width="666.000000pt" height="666.000000pt" viewBox="0 0 666.000000 666.000000"
 preserveAspectRatio="xMidYMid meet">
<metadata>
Created by potrace 1.14, written by Peter Selinger 2001-2017
</metadata>
<g transform="translate(0.000000,666.000000) scale(0.100000,-0.100000)"
fill="#000000" stroke="none">
<path d="M2648 6645 c-2 -3 -27 -8 -54 -11 -90 -10 -178 -37 -293 -90 -238
-110 -423 -290 -544 -529 -37 -73 -101 -254 -93 -262 3 -3 1 -16 -4 -28 -20
-54 -23 -234 -23 -1560 1 -1254 3 -1486 18 -1535 2 -8 7 -28 10 -45 8 -37 8
-38 28 -107 16 -54 112 -257 127 -268 3 -3 21 -27 40 -54 50 -74 187 -206 271
-263 130 -88 302 -159 454 -189 61 -11 1297 -17 1304 -5 5 7 7 672 2 731 -1
13 -72 15 -578 16 -318 0 -594 3 -614 6 -131 20 -261 141 -296 275 -4 15 -8
662 -9 1437 -2 1233 0 1415 13 1460 8 28 20 54 25 57 5 3 9 10 7 14 -7 24 94
126 158 159 27 13 73 28 103 34 68 11 2798 9 2855 -2 92 -20 200 -100 243
-181 50 -97 48 -33 47 -1540 -1 -770 -5 -1413 -9 -1430 -45 -178 -213 -299
-399 -290 -42 2 -45 1 -49 -24 -1 -14 -3 -183 -2 -376 l0 -350 110 1 c127 2
157 6 279 40 214 60 431 204 570 379 22 28 43 52 48 53 4 2 7 10 7 17 0 7 3
15 8 17 16 7 119 209 127 248 2 11 7 25 10 30 8 13 13 36 36 150 17 90 18 169
16 1565 -2 809 -6 1481 -9 1495 -3 14 -8 41 -13 60 -54 256 -232 532 -432 671
-26 19 -50 36 -53 39 -6 7 -103 64 -110 65 -3 1 -34 15 -70 31 -36 17 -87 36
-115 43 -27 7 -61 17 -75 22 -14 5 -47 12 -75 16 -56 8 -2989 16 -2997 8z"/>
<path d="M1015 4943 c-276 -46 -530 -194 -700 -408 -22 -27 -42 -52 -45 -55
-34 -33 -114 -193 -149 -295 -59 -176 -56 -95 -56 -1700 0 -814 3 -1498 7
-1520 6 -31 23 -108 28 -122 5 -17 10 -35 20 -68 30 -98 128 -277 197 -357 42
-49 124 -129 172 -168 38 -31 204 -138 216 -140 3 0 24 -9 47 -19 80 -34 177
-61 288 -81 8 -2 679 -5 1490 -6 996 -2 1490 0 1520 7 25 6 56 12 70 14 69 11
187 53 275 98 74 38 127 69 135 77 3 3 25 21 50 40 80 60 223 213 252 269 7
14 16 28 19 31 12 10 56 97 86 170 35 84 61 175 68 235 3 22 8 58 11 80 8 53
8 2834 0 2917 -9 85 -23 148 -53 238 -28 81 -104 243 -124 260 -3 3 -21 27
-39 55 -31 45 -157 178 -206 216 -131 103 -291 179 -459 221 -87 21 -109 22
-727 25 -351 2 -638 0 -639 -4 -5 -40 -2 -728 3 -736 5 -9 164 -12 590 -12
647 -1 645 -1 744 -67 52 -35 124 -122 124 -150 0 -9 4 -18 9 -20 6 -1 13 -16
17 -33 13 -49 15 -2811 3 -2875 -26 -134 -113 -235 -244 -286 -48 -18 -97 -19
-1455 -20 -773 0 -1423 3 -1445 8 -64 14 -140 54 -181 96 -47 47 -76 82 -68
82 4 0 0 7 -7 16 -8 10 -21 42 -29 73 -14 49 -15 228 -14 1456 1 770 4 1411 7
1425 2 14 10 39 16 55 7 17 12 31 11 33 0 1 16 24 35 50 45 59 106 107 153
123 20 6 42 15 47 18 13 9 57 14 125 15 33 1 57 6 60 13 4 10 5 680 1 731 -1
17 -143 14 -256 -5z"/>
</g>
</svg>
